<?xml version="1.0" encoding="utf-8"?>
<!-- Generator: Adobe Adobe Illustrator 24.2.0, SVG Export Plug-In . SVG Version: 6.00 Build 0)  -->
<svg version="1.1" id="Layer_1" xmlns="http://www.w3.org/2000/svg" xmlns:xlink="http://www.w3.org/1999/xlink" x="0px" y="0px"
	 width="810px" height="510px" viewBox="0 0 810 510" style="enable-background:new 0 0 810 510;" xml:space="preserve">
<style type="text/css">
	.st0{fill:#121212;}
	.st1{fill:none;stroke:#000000;stroke-width:5.7138;stroke-miterlimit:10;}
	.st2{fill:#FFD561;}
	.st3{fill:#FFD561;stroke:#FFD561;stroke-width:5.7138;stroke-miterlimit:10;}
	.st4{fill:#FFFFFF;stroke:#FFFFFF;stroke-miterlimit:10;}
	.st5{fill:#FFFFFF;stroke:#FFFFFF;stroke-width:5.7138;stroke-miterlimit:10;}
	.st6{fill:#436447;}
	.st7{fill:#436447;stroke:#436447;stroke-width:5.7138;stroke-miterlimit:10;}
	.st8{fill:#FFFFFF;}
	.st9{fill:#FFFFFF;stroke:#FFFFFF;stroke-width:0.2898;stroke-miterlimit:10;}
	.st10{fill:#FFFFFF;stroke:#FFFFFF;stroke-width:1.656;stroke-miterlimit:10;}
</style>
<g>
	<path class="st8" d="M629.26,475.94c0.46-1.01,7.81-4.52,11.83-5.91c5.55-3.34,12.89-5.51,13.83-9.4
		c2.08-8.63-3.69-11.45-5.26-18.11c1.25-0.91,5.07-1.5,6.6-3.5c1.29-1.69,2.54-4.76,1.85-6.38c-4-9.36-23.98-52.34-25.09-56.68
		c-3.98-15.59-3.03-32.03-4.57-49.42c-0.18-16.14-7.88-27.58-16.47-38.56c-0.06,0.1,0.13-0.02-0.02-0.52
		c-1.65-1.89-8.34-9.15-12.38-12.56c-6.76-5.71-12.82-10.78-18.89-15.84c-4.53-3.94-9.06-7.88-14.34-12.47
		c-5.52-5.01-15.08-13.72-15.08-13.72s-0.18-0.07-0.32-0.7c-4.5-6.86-14.6-23.06-16.89-27.65c-4.54-9.07-13.31-7.98-22.38-8.95
		c-1.99,0.03-2.87,0.14-3.74,0.25c-6.39-0.12-12.78-0.24-20.47-0.37c-5.23,0.07-9.17,0.15-13.1,0.23c-2.76-0.43-5.52-0.87-9.44-1.4
		c-7.15-0.98-11.15-2.47-19.02-3c-2.4-0.16-3.76-0.2-5.12-0.25c-1.44-0.23-2.88-0.46-4.61-0.77c-2.06-0.38-3.93-1.47-5.31-3.04
		c-6.34-7.21-7.31-14.61-3.11-21.79c0.59-1,1.96-1.2,2.82-0.42c2.03,1.81,4.01,3.63,6.12,5.28c3.5,2.74,7.11,7.42,10.75,7.5
		c14.03,0.32,28.11-1.42,42.16-2.04c-20.85-13.67-42.93-24.22-68.18-29.56c0,18.58-10.8-30.01-10.8-30.01
		c0.04,10.58,18.29,14.39,28.58,17.53c21.6,6.6,43.36,12.68,65,19.15c6.36,1.9,11.06,0.44,15.63-4.52
		c10.99-11.92,22.65-23.23,33.64-35.16c4.38-4.76,8.25-10.43,10.61-16.35c3.85-9.64,0.36-20.71-8.22-26.57
		c-5.66-3.86-11.41-7.59-17.25-11.18c-8.96-5.51-12.85-13.73-13.45-23.93c-0.49-8.36,2.1-11.36,10.57-10.69
		c8.75,0.7,17.42,2.23,26.17,3.01c2.68,0.24,5.91-0.09,8.16-1.42c21.24-12.51,52.32,0.52,57.89,24.47
		c5.09,21.88,6.53,43.61-1.63,65.22c-4.62,12.24,0.13,24.02,2.39,35.99c8.78,46.52,34.99,83.07,65.66,117.37
		c7.94,8.88,15.11,17.02,28.33,16.07c9.78-0.71,17.17-4.54,22.06-13.31c3.21-5.76,6.33-11.94,10.96-16.41
		c2.8-2.7,8.96-5.95,12.77-3.58c3.54,2.21,3.18,8.51,2.29,12.16c-1.74,7.13-4.66,14.15-8.18,20.63
		c-7.34,13.53-18.67,21.39-34.53,22.08c-6.9,0.3-13.77,1.51-20.68,1.72c-6.22,0.19-9.46,3.58-10.45,9
		c-2.88,15.65-9.78,29.5-17.03,43.5c-3.06,5.92-3.11,14.92-1.25,21.61c8.96,32.36-2.21,61.36-13.28,90.54
		c-1.1,2.89-1.99,5.87-3.37,9.36c-0.99,1.14-1.59,1.73-2.19,2.31c-21.44-1.92-24.22-0.51-23.87-1.5S628.13,478.44,629.26,475.94z"/>
	<path class="st8" d="M325.22,488.8H22.93v-6.49c45.41,0,72.65-1.73,81.73-5.21c4.32-1.72,7.35-4.22,9.08-7.48
		c1.72-3.25,2.59-11.17,2.59-23.75V112.03c0-12.14-0.87-19.95-2.59-23.42c-0.87-1.73-3.68-3.47-8.43-5.21
		c-12.55-4.76-40.01-7.16-82.38-7.16V70.4h265.31c46.71,0,83.89,12.54,111.57,37.61c22.05,19.9,33.08,40.43,33.08,61.61
		c0,25.95-6.68,45.4-20.04,58.37c-17.68,17.73-51.07,30.26-100.19,37.61c51.73,6.49,89.68,21.42,113.83,44.77
		c19.83,19.04,29.75,43.47,29.75,73.31c0,24.22-11.25,46.94-33.73,68.12C396.57,476.48,364.14,488.8,325.22,488.8z M196.13,263.06
		h60.08c31.43,0,54.68-5.88,69.76-17.64c18.08-13.93,27.13-37.23,27.13-69.9c0-36.58-7.33-62.27-21.96-77.08
		c-14.65-14.8-39.41-22.21-74.29-22.21h-31c-9.05,0-15.73,0.66-20.03,1.97c-4.31,1.31-7,4.14-8.08,8.49
		c-1.07,4.36-1.61,12.84-1.61,25.47V263.06z M272.96,268.9h-76.83v176.98c0,13.01,0.76,21.26,2.28,24.73
		c1.52,3.47,4.77,6.18,9.76,8.13c4.99,1.96,11.5,3.15,19.53,3.58c8.03,0.44,26.81,0.65,56.32,0.65c30.81,0,53.81-9.33,69-27.97
		c13.89-16.92,20.84-40.56,20.84-70.93c0-36-8.04-63.75-24.09-83.27C332.41,279.53,306.81,268.9,272.96,268.9z"/>
</g>
</svg>
