<?xml version="1.0" encoding="utf-8"?>
<!-- Generator: Adobe Adobe Illustrator 24.2.0, SVG Export Plug-In . SVG Version: 6.00 Build 0)  -->
<svg version="1.1" id="Layer_1" xmlns="http://www.w3.org/2000/svg" xmlns:xlink="http://www.w3.org/1999/xlink" x="0px" y="0px"
	 width="2344px" height="517.96px" viewBox="0 0 2344 517.96" style="enable-background:new 0 0 2344 517.96;" xml:space="preserve"
	>
<style type="text/css">
	.st0{fill:#121212;}
	.st1{fill:none;stroke:#000000;stroke-width:5.7138;stroke-miterlimit:10;}
	.st2{fill:#FFD561;}
	.st3{fill:#FFD561;stroke:#FFD561;stroke-width:5.7138;stroke-miterlimit:10;}
	.st4{fill:#FFFFFF;stroke:#FFFFFF;stroke-miterlimit:10;}
	.st5{fill:#FFFFFF;stroke:#FFFFFF;stroke-width:5.7138;stroke-miterlimit:10;}
	.st6{fill:#436447;}
	.st7{fill:#436447;stroke:#436447;stroke-width:5.7138;stroke-miterlimit:10;}
	.st8{fill:#FFFFFF;}
	.st9{fill:#FFFFFF;stroke:#FFFFFF;stroke-width:0.2898;stroke-miterlimit:10;}
	.st10{fill:#FFFFFF;stroke:#FFFFFF;stroke-width:1.656;stroke-miterlimit:10;}
</style>
<g>
	<path class="st8" d="M289.6,467.19H0v-6.21c43.5,0,69.6-1.66,78.3-4.99c4.14-1.65,7.04-4.04,8.7-7.17
		c1.65-3.12,2.49-10.7,2.49-22.75V106.24c0-11.63-0.83-19.11-2.49-22.44c-0.84-1.66-3.52-3.32-8.08-4.99
		C66.9,74.24,40.6,71.95,0,71.95v-5.59h254.17c44.74,0,80.37,12.01,106.89,36.03c21.13,19.06,31.69,38.73,31.69,59.03
		c0,24.86-6.4,43.49-19.2,55.92c-16.93,16.98-48.93,28.99-95.98,36.03c49.56,6.21,85.92,20.52,109.05,42.89
		c18.99,18.24,28.5,41.65,28.5,70.23c0,23.21-10.78,44.97-32.32,65.26C357.95,455.39,326.88,467.19,289.6,467.19z M165.93,250.93
		h57.56c30.11,0,52.39-5.63,66.84-16.9c17.32-13.34,25.99-35.67,25.99-66.96c0-35.04-7.02-59.66-21.04-73.85
		c-14.03-14.18-37.75-21.27-71.18-21.27h-29.7c-8.67,0-15.07,0.63-19.19,1.88c-4.13,1.25-6.71,3.96-7.74,8.14
		c-1.03,4.18-1.54,12.3-1.54,24.4V250.93z M239.53,256.52h-73.6v169.55c0,12.47,0.73,20.37,2.18,23.69
		c1.46,3.32,4.57,5.92,9.35,7.79c4.78,1.87,11.02,3.02,18.71,3.43c7.69,0.42,25.68,0.62,53.96,0.62c29.52,0,51.55-8.93,66.11-26.8
		c13.3-16.21,19.96-38.86,19.96-67.95c0-34.49-7.7-61.08-23.08-79.78C296.49,266.71,271.96,256.52,239.53,256.52z"/>
	<path class="st8" d="M596.59,259.01v166.44c0,11.64,0.61,18.92,1.85,21.82c1.24,2.91,5.17,5.51,11.78,7.8s14.25,3.64,22.94,4.05
		c8.68,0.42,24.17,0.62,46.48,0.62c47.1,0,82.74-14.03,106.92-42.09c24.18-28.06,39.36-73.07,45.56-135.02h8.08v184.57H436.25v-6.21
		c36.87,0,61.31-2.28,73.33-6.86c4.14-1.66,6.93-3.85,8.39-6.55c1.45-2.7,2.17-9.87,2.17-21.51V106.86
		c0-12.04-0.83-19.53-2.49-22.44c-0.84-1.66-3.52-3.32-8.08-4.98c-4.56-1.66-13.89-3.32-27.97-4.99c-14.09-1.66-29.21-2.5-45.37-2.5
		v-5.59h383.43v155.36h-8.08c0-32.03-8.06-62.61-24.17-91.73c-21.48-38.68-51.84-58.04-91.09-58.04c-15.7,0-31.5,0.11-47.41,0.31
		c-15.9,0.21-30.05,2.19-42.44,5.94c-3.72,1.67-6.3,3.86-7.75,6.57c-1.45,2.72-2.17,10.12-2.17,22.22v145.8
		c42.84,0,69.42-4.35,79.73-13.05c15.65-13.25,26.57-48.88,32.75-106.89h7.46v244.85h-7.46c-6.19-56.76-16.9-91.76-32.14-105.03
		C666.21,263.57,639.43,259.01,596.59,259.01z"/>
	<path class="st8" d="M1106.16,467.19H864.42v-6.21c18.64,0,34.59-0.62,47.85-1.86c13.25-1.24,22.37-2.81,27.34-4.68
		c4.97-1.86,7.86-3.63,8.7-5.3c1.65-2.9,2.49-10.59,2.49-23.06V106.86c0-11.63-0.83-19.11-2.49-22.44
		c-0.84-1.66-3.52-3.32-8.08-4.99c-13.26-4.98-38.53-7.48-75.82-7.48v-5.59h242.37c46.81,0,89.07,17.2,126.78,51.58
		c43.5,39.37,65.25,89.7,65.25,151.01c0,60.49-19.26,109.17-57.79,146.04C1204.56,449.79,1159.61,467.19,1106.16,467.19z
		 M1106.42,460.98c39.48,0,68.27-16,86.35-48.01c18.08-32.01,27.12-80,27.12-144.01c0-60.68-9.15-108.06-27.43-142.15
		c-19.54-36.57-48.22-54.86-86.04-54.86c-19.95,0-35.23,0.32-45.82,0.94c-10.6,0.62-18.08,1.77-22.45,3.43
		c-4.37,1.66-7.27,4.05-8.73,7.17c-1.46,3.12-2.17,10.9-2.17,23.37v319.21c0,12.05,0.72,19.94,2.17,23.68
		c1.46,3.75,4.26,6.45,8.42,8.11c4.16,1.67,13.1,2.6,26.81,2.81C1078.35,460.88,1092.28,460.98,1106.42,460.98z"/>
	<path class="st8" d="M1545.16,327.37h-119.76l-19.14,54.94c-4.94,13.74-7.41,25.61-7.41,35.59c0,15.4,5.8,26.43,17.4,33.09
		c11.59,6.66,27.96,9.99,49.1,9.99v6.21h-157.85v-6.21c28.59,0,50.74-10.79,66.49-32.36c8.7-12.03,19.89-36.93,33.56-74.69
		l105.02-292.54h12.43l134.23,364.73c6.21,17.02,12.43,27.09,18.64,30.2c6.21,3.11,24.86,4.66,55.93,4.66v6.21h-229.31v-6.21
		c31.07,0,52.41-1.14,64.01-3.43c11.59-2.29,17.4-6.97,17.4-14.05l-1.24-6.24L1545.16,327.37z M1542.08,320.53l-56.79-158.23
		l-56.78,158.23H1542.08z"/>
	<path class="st8" d="M1945.65,96.81c24.08-21.13,37.58-32.94,40.48-35.42v135.48l-4.97-1.86c-5.81-36.28-20.93-66.69-45.37-91.22
		c-24.45-24.53-52.2-36.8-83.27-36.8c-21.55,0-40.19,4.97-55.93,14.9c-19.48,12-29.21,29.58-29.21,52.74
		c0,22.34,10.54,40.54,31.62,54.6c17.77,12,46.29,22.55,85.56,31.65c50.83,12.41,84.1,24.21,99.81,35.37
		c25.62,18.62,38.43,49.65,38.43,93.07c0,40.96-13.26,72.6-39.77,94.94c-22.37,19.03-49.51,28.55-81.41,28.55
		c-24.45,0-46.3-3.94-65.56-11.81c-19.27-7.86-35.95-20.92-50.03-39.15c-24.86,32.73-37.91,49.72-39.15,50.96V301.27l4.97-0.62
		c7.87,35.64,16.78,64.22,26.72,85.76c8.28,18.24,18.02,33.35,29.21,45.37c21.96,23.62,53.85,35.42,95.7,35.42
		c19.47,0,37.29-6.41,53.44-19.24c18.64-14.89,27.96-33.5,27.96-55.84c0-27.3-12.61-48.81-37.82-64.53
		c-17.36-10.75-47.63-22.02-90.82-33.81c-43.19-11.79-73.26-23.89-90.2-36.3c-24.8-18.67-37.2-45.85-37.2-81.55
		c0-31.95,11.31-59.03,33.95-81.24c22.63-22.2,49.53-33.31,80.68-33.31c26.58,0,48.38,3.94,65.42,11.81
		C1914.29,75.68,1926.54,83.56,1945.65,96.81z"/>
	<path class="st8" d="M2184.21,463.19c0.43-0.96,7.43-4.31,11.26-5.63c5.28-3.18,12.27-5.24,13.16-8.95c1.98-8.21-3.51-10.9-5-17.24
		c1.19-0.87,4.82-1.43,6.28-3.33c1.23-1.6,2.42-4.53,1.76-6.08c-3.81-8.91-22.83-49.82-23.89-53.95
		c-3.79-14.84-2.89-30.49-4.35-47.05c-0.17-15.36-7.5-26.25-15.68-36.7c-0.06,0.09,0.13-0.02-0.02-0.49
		c-1.57-1.8-7.94-8.71-11.79-11.96c-6.43-5.44-12.21-10.26-17.98-15.08c-4.31-3.75-8.63-7.5-13.65-11.87
		c-5.26-4.77-14.35-13.06-14.35-13.06s-0.17-0.07-0.3-0.67c-4.29-6.53-13.9-21.95-16.08-26.32c-4.32-8.63-12.67-7.59-21.3-8.52
		c-1.9,0.03-2.73,0.13-3.56,0.24c-6.08-0.11-12.17-0.23-19.49-0.36c-4.98,0.06-8.73,0.14-12.47,0.22c-2.63-0.41-5.25-0.83-8.99-1.34
		c-6.81-0.93-10.61-2.35-18.1-2.85c-2.29-0.15-3.58-0.19-4.88-0.24c-1.37-0.22-2.74-0.43-4.38-0.74c-1.96-0.36-3.74-1.4-5.06-2.9
		c-6.04-6.86-6.96-13.91-2.96-20.74c0.56-0.95,1.87-1.14,2.69-0.4c1.93,1.73,3.82,3.45,5.83,5.03c3.33,2.61,6.77,7.06,10.24,7.14
		c13.36,0.3,26.75-1.35,40.13-1.94c-19.84-13.01-40.87-23.06-64.9-28.14c0,17.69-0.47-35.93-0.47-35.93
		c0.04,10.08,7.6,21.05,17.4,24.05c20.56,6.28,41.27,12.07,61.87,18.23c6.06,1.81,10.53,0.42,14.88-4.3
		c10.46-11.35,21.56-22.12,32.02-33.47c4.17-4.53,7.85-9.93,10.1-15.57c3.66-9.18,0.34-19.72-7.82-25.29
		c-5.39-3.68-10.87-7.23-16.42-10.64c-8.53-5.24-12.23-13.07-12.8-22.78c-0.47-7.96,2-10.81,10.06-10.17
		c8.33,0.66,16.59,2.13,24.91,2.86c2.55,0.23,5.63-0.09,7.77-1.35c20.22-11.91,49.81,0.49,55.11,23.3
		c4.84,20.82,6.21,41.51-1.55,62.08c-4.4,11.65,0.12,22.87,2.27,34.26c8.36,44.29,33.3,79.07,62.51,111.73
		c7.56,8.45,14.39,16.2,26.97,15.29c9.31-0.67,16.34-4.32,21-12.67c3.06-5.48,6.02-11.37,10.43-15.62
		c2.67-2.57,8.53-5.67,12.15-3.41c3.37,2.1,3.03,8.1,2.18,11.57c-1.65,6.79-4.44,13.47-7.78,19.64
		c-6.99,12.88-17.77,20.36-32.87,21.02c-6.57,0.28-13.11,1.44-19.68,1.63c-5.92,0.18-9,3.41-9.95,8.56
		c-2.74,14.9-9.31,28.08-16.21,41.41c-2.92,5.64-2.96,14.2-1.19,20.58c8.53,30.8-2.1,58.41-12.64,86.19
		c-1.05,2.75-1.89,5.58-3.21,8.91c-0.94,1.09-1.51,1.65-2.08,2.2c-20.41-1.83-23.06-0.48-22.72-1.43
		C2190.92,469.21,2183.14,465.57,2184.21,463.19z"/>
</g>
</svg>
